<svg width="65" height="65" viewBox="0 0 1000 1000" xmlns="http://www.w3.org/2000/svg">
  <!-- Background -->
  <path d="M0 0 C330 0 660 0 1000 0 C1000 330 1000 660 1000 1000 C670 1000 340 1000 0 1000 C0 670 0 340 0 0 Z" style="fill: #3d3659;"/>
  <!-- Body shape -->
  <path d="M0 0 C31.53958491 -1.06258938 65.44316348 2.74152063 95.51025391 12.47949219 C97.37734741 13.07493347 99.25816536 13.62680595 101.13916016 14.17675781 C135.18117783 24.24752137 167.37980058 39.7360645 196.45166016 60.09863281 C196.99161621 60.47020508 197.53157227 60.84177734 198.08789062 61.22460938 C206.99350016 67.35551872 215.33845869 73.95522304 223.45166016 81.09863281 C224.29083984 81.83726562 225.13001953 82.57589844 225.99462891 83.33691406 C228.49871462 85.57139185 230.9777036 87.8308393 233.45166016 90.09863281 C234.0053125 90.60185059 234.55896484 91.10506836 235.12939453 91.62353516 C247.81495366 103.1605369 247.81495366 103.1605369 252.71337891 109.05566406 C254.86344424 111.58259478 257.16322422 113.94627767 259.45166016 116.34863281 C276.17846346 134.32869897 289.22021046 155.60404876 301.21875 176.91601562 C302.3097606 178.84742844 303.41931421 180.76660274 304.53369141 182.68457031 C311.40916804 194.92319879 316.36237274 208.04155017 321.45166016 221.09863281 C321.74202148 221.84064941 322.03238281 222.58266602 322.33154297 223.34716797 C343.68344089 278.51827634 346.16420264 338.43877261 335.45166016 396.09863281 C335.29439453 396.95618164 335.13712891 397.81373047 334.97509766 398.69726562 C325.34878573 450.31632385 300.62719841 500.58779967 267.45166016 541.09863281 C266.21996094 542.61650391 266.21996094 542.61650391 264.96337891 544.16503906 C249.93415644 562.43596918 233.15451107 579.57700828 214.45166016 594.09863281 C213.87367676 594.54916016 213.29569336 594.9996875 212.70019531 595.46386719 C182.68146136 618.75734735 149.33253757 636.64841443 113.45166016 649.09863281 C112.42782227 649.45586426 111.40398437 649.8130957 110.34912109 650.18115234 C86.50662576 658.405658 62.52522742 662.71245292 37.55834961 665.72265625 C35.74793106 665.94175602 33.93846249 666.16971671 32.13208008 666.41992188 C24.6712246 667.40145137 17.15174984 667.34249711 9.63916016 667.34863281 C8.52009277 667.34964493 8.52009277 667.34964493 7.37841797 667.35067749 C-72.60641034 667.23682084 -153.18577279 635.59661418 -212.00537109 581.42285156 C-214.11185152 579.49757376 -216.24850464 577.632691 -218.42333984 575.78613281 C-227.09037849 568.24491568 -235.15680036 559.88419071 -242.54833984 551.09863281 C-243.34240234 550.19371094 -244.13646484 549.28878906 -244.95458984 548.35644531 C-282.20291398 505.66981119 -309.57011177 449.56130195 -319.67333984 393.66113281 C-319.83946777 392.75991699 -320.0055957 391.85870117 -320.17675781 390.93017578 C-321.55011571 383.34767374 -322.73178123 375.7626689 -323.54833984 368.09863281 C-323.63857422 367.2667041 -323.72880859 366.43477539 -323.82177734 365.57763672 C-331.9359904 288.64338357 -309.88386014 209.32108475 -265.54833984 146.09863281 C-264.9750293 145.27274658 -264.9750293 145.27274658 -264.39013672 144.43017578 C-256.58230889 133.19791634 -248.15387276 122.72063631 -238.88037109 112.64941406 C-236.91334956 110.4978813 -235.00280855 108.31571309 -233.11083984 106.09863281 C-226.87186139 98.93263633 -220.03932467 92.17177345 -212.80224609 86.01660156 C-211.04231221 84.51898018 -209.30449671 82.99535539 -207.57568359 81.46191406 C-154.55211169 34.66216938 -86.4427651 7.83773204 -16.54833984 1.09863281 C-15.25541016 0.96457031 -13.96248047 0.83050781 -12.63037109 0.69238281 C-8.42217616 0.31599768 -4.22076731 0.16336367 0 0 Z M48.45166016 88.09863281 C47.32066895 88.28167969 46.18967773 88.46472656 45.02441406 88.65332031 C-15.40268172 98.70769393 -72.43889255 129.31854028 -110.54833984 178.09863281 C-111.00611816 178.68 -111.46389648 179.26136719 -111.93554688 179.86035156 C-123.6830982 194.84820039 -133.57865996 210.79802845 -141.54833984 228.09863281 C-142.09337158 229.2793335 -142.09337158 229.2793335 -142.64941406 230.48388672 C-151.37117487 249.59737448 -158.13958626 269.33048597 -161.54833984 290.09863281 C-161.69787109 290.99839844 -161.84740234 291.89816406 -162.00146484 292.82519531 C-166.67532645 322.39945754 -166.07592923 353.54681193 -161.54833984 383.09863281 C-161.3148584 384.66145996 -161.3148584 384.66145996 -161.07666016 386.25585938 C-154.18922553 430.34368944 -132.97166741 471.84715673 -103.54833984 505.09863281 C-102.78908203 505.96875 -102.02982422 506.83886719 -101.24755859 507.73535156 C-92.4138073 517.73019982 -83.09041314 526.91571914 -72.54833984 535.09863281 C-71.96987305 535.55351074 -71.39140625 536.00838867 -70.79541016 536.47705078 C-24.90767334 572.44928658 29.64561421 589.29646379 87.63916016 589.34863281 C88.42379639 589.34963989 89.20843262 589.35064697 90.0168457 589.35168457 C116.65181247 589.32874433 143.25669085 586.00246373 168.45166016 577.09863281 C169.23057617 576.82567383 170.00949219 576.55271484 170.81201172 576.27148438 C197.87602598 566.67017787 221.87803429 553.76413937 244.45166016 536.09863281 C245.93279297 534.94041016 245.93279297 534.94041016 247.44384766 533.75878906 C288.94522796 500.49753789 321.94266989 450.70398065 332.45166016 398.09863281 C332.60731445 397.32277832 332.76296875 396.54692383 332.92333984 395.74755859 C338.81703427 365.79808137 341.58979536 333.38151715 336.45166016 303.09863281 C336.23827323 301.54853885 336.0302881 299.99769517 335.82666016 298.44628906 C329.04107456 247.80773884 306.57533083 201.19554342 271.45166016 164.09863281 C270.30015197 162.74928842 269.15398512 161.3953607 268.01416016 160.03613281 C259.68152288 150.50204551 249.532667 142.68651521 239.45166016 135.09863281 C238.49694824 134.37522705 238.49694824 134.37522705 237.52294922 133.63720703 C207.82401056 111.32251118 172.7648378 97.26666487 136.45166016 90.09863281 C135.47455078 89.89625 134.49744141 89.69386719 133.49072266 89.48535156 C118.58439102 86.55332537 103.79160733 85.75006691 88.63916016 85.84863281 C87.31514694 85.85428253 87.31514694 85.85428253 85.96438599 85.86004639 C73.36509438 85.92303643 60.90751219 86.02984078 48.45166016 88.09863281 Z" transform="translate(497.54833984375,168.9013671875)" style="fill: #c8cdfe;"/>
  <!-- Left eye -->
  <path d="M0 0 C10.20431076 7.2887934 17.90765154 17.96097894 20.2890625 30.46875 C21.57000324 42.31252511 16.71553032 52.09102788 9.6640625 61.27734375 C2.55759612 69.78416354 -5.96459597 74.31892782 -16.45703125 77.81640625 C-30.4362638 78.92282953 -40.68012969 74.962351 -51.49609375 66.15625 C-60.11977444 58.12141094 -66.14270886 46.47566711 -66.76953125 34.69140625 C-66.58952492 23.81902401 -60.52455443 13.56027217 -53.49609375 5.59375 C-37.52363559 -9.81462506 -18.42216921 -12.16352975 0 0 Z" transform="translate(703.45703125,470.18359375)" style="fill: #c8cdfe;"/>
  <!-- Right eye -->
  <path d="M0 0 C10.20431076 7.2887934 17.90765154 17.96097894 20.2890625 30.46875 C21.57000324 42.31252511 16.71553032 52.09102788 9.6640625 61.27734375 C2.55759612 69.78416354 -5.96459597 74.31892782 -16.45703125 77.81640625 C-30.4362638 78.92282953 -40.68012969 74.962351 -51.49609375 66.15625 C-60.11977444 58.12141094 -66.14270886 46.47566711 -66.76953125 34.69140625 C-66.58952492 23.81902401 -60.52455443 13.56027217 -53.49609375 5.59375 C-37.52363559 -9.81462506 -18.42216921 -12.16352975 0 0 Z" transform="translate(521.45703125,470.18359375)" style="fill: #c8cdfe;"/>
</svg>
