<?xml version="1.0" encoding="UTF-8" standalone="no"?>
<!DOCTYPE svg PUBLIC "-//W3C//DTD SVG 1.1//EN" "http://www.w3.org/Graphics/SVG/1.1/DTD/svg11.dtd">
<svg xmlns="http://www.w3.org/2000/svg" version="1.1" viewBox="0.00 0.00 272.00 66.00">
<path fill="currentColor" d="
  M 46.86 0.00
  L 51.51 0.00
  C 66.63 1.94 78.78 11.80 81.53 27.28
  A 0.10 0.10 0.0 0 0 81.72 27.29
  Q 81.78 27.02 81.88 26.92
  Q 82.25 26.53 82.32 27.00
  Q 83.33 33.15 82.26 39.30
  Q 82.23 39.51 82.10 39.35
  L 81.91 39.11
  Q 81.70 38.84 81.61 39.17
  Q 75.49 62.74 51.40 66.00
  L 46.50 66.00
  Q 22.73 62.77 16.82 40.64
  Q 15.28 34.89 16.34 28.22
  C 18.84 12.39 30.83 1.84 46.86 0.00
  Z
  M 80.98 33.00
  A 24.83 24.83 0.0 0 0 56.15 8.17
  A 24.83 24.83 0.0 0 0 31.32 33.00
  A 24.83 24.83 0.0 0 0 56.15 57.83
  A 24.83 24.83 0.0 0 0 80.98 33.00
  Z"
/>
<path fill="currentColor" d="
  M 154.46 25.69
  C 160.24 19.70 166.06 24.35 166.16 31.49
  Q 166.24 37.73 166.26 43.52
  A 0.48 0.48 0.0 0 1 165.79 44.00
  L 162.46 44.00
  Q 161.98 44.00 161.98 43.52
  Q 162.10 33.22 161.95 30.26
  C 161.67 24.76 154.09 25.34 154.03 31.52
  Q 153.96 37.74 154.01 43.70
  Q 154.01 44.00 153.71 44.00
  L 150.00 43.99
  A 0.25 0.24 0.0 0 1 149.75 43.75
  L 149.75 14.51
  A 0.24 0.24 0.0 0 1 149.99 14.27
  L 153.76 14.28
  A 0.23 0.23 0.0 0 1 153.99 14.51
  L 154.00 25.50
  Q 154.00 26.17 154.46 25.69
  Z"
/>
<path fill="currentColor" d="
  M 251.91 41.08
  C 246.24 46.49 239.76 43.73 238.09 36.78
  Q 237.05 32.49 238.80 28.46
  C 241.13 23.13 246.45 21.26 251.29 24.98
  Q 251.75 25.34 251.75 24.75
  L 251.75 14.76
  A 0.49 0.49 0.0 0 1 252.24 14.27
  L 255.51 14.27
  Q 256.00 14.27 256.00 14.76
  L 256.00 43.51
  Q 256.00 44.01 255.49 44.01
  L 253.04 43.98
  A 0.68 0.67 -5.3 0 1 252.39 43.45
  Q 252.17 42.36 252.31 41.28
  Q 252.40 40.61 251.91 41.08
  Z
  M 251.7225 30.8680
  A 4.41 4.41 0.0 0 0 247.3667 26.4044
  L 246.7268 26.3966
  A 4.41 4.41 0.0 0 0 242.2632 30.7524
  L 242.1975 36.1320
  A 4.41 4.41 0.0 0 0 246.5533 40.5956
  L 247.1932 40.6034
  A 4.41 4.41 0.0 0 0 251.6568 36.2476
  L 251.7225 30.8680
  Z"
/>
<path fill="currentColor" d="
  M 108.24 36.95
  L 107.92 16.01
  A 1.17 1.17 0.0 0 1 109.13 14.82
  L 110.80 14.88
  A 1.17 1.16 -89.2 0 1 111.93 16.05
  L 112.02 43.49
  Q 112.02 44.00 111.51 44.00
  L 108.14 43.99
  Q 107.58 43.99 107.32 43.49
  L 95.99 21.54
  Q 95.82 21.21 95.82 21.58
  L 96.07 43.21
  Q 96.08 44.00 95.29 44.00
  L 93.00 44.00
  Q 92.00 44.00 92.00 43.00
  L 92.00 15.50
  Q 92.00 15.00 92.50 15.00
  L 96.12 15.00
  Q 96.70 15.00 96.97 15.51
  L 108.21 36.96
  Q 108.24 37.01 108.24 36.95
  Z"
/>
<circle fill="currentColor" cx="119.50" cy="17.50" r="2.48"/>
<path fill="currentColor" d="
  M 177.50 23.00
  L 181.50 23.01
  A 0.23 0.23 0.0 0 1 181.73 23.25
  L 181.72 26.01
  A 0.24 0.23 -90.0 0 1 181.49 26.25
  L 177.50 26.25
  Q 177.01 26.25 177.01 26.74
  Q 176.98 32.27 176.99 37.75
  Q 177.01 41.80 181.19 40.53
  Q 181.47 40.45 181.47 40.74
  L 181.47 43.24
  A 0.32 0.32 0.0 0 1 181.24 43.55
  C 177.37 44.72 173.11 43.54 172.92 38.88
  Q 172.67 32.79 172.76 26.72
  A 0.50 0.50 0.0 0 0 172.25 26.21
  L 170.52 26.27
  Q 170.01 26.28 170.01 25.77
  L 170.00 23.50
  Q 169.99 23.00 170.50 23.00
  L 172.26 23.00
  Q 172.76 23.00 172.76 22.49
  L 172.75 20.09
  Q 172.74 19.36 173.43 19.14
  L 176.28 18.25
  Q 177.00 18.02 177.00 18.78
  L 177.00 22.50
  Q 177.00 23.00 177.50 23.00
  Z"
/>
<rect fill="currentColor" x="117.75" y="23.00" width="4.24" height="21.00" rx="0.33"/>
<path fill="currentColor" d="
  M 140.59 25.10
  Q 140.43 24.30 140.66 23.52
  Q 140.81 23.00 141.34 23.00
  L 143.78 23.00
  Q 144.36 23.00 144.35 23.58
  Q 144.15 32.35 144.21 41.50
  C 144.27 51.11 136.87 54.76 128.72 50.98
  A 0.43 0.43 0.0 0 1 128.49 50.46
  L 129.26 48.04
  A 0.30 0.30 0.0 0 1 129.69 47.86
  C 134.60 50.44 141.38 48.90 139.87 41.86
  Q 139.75 41.33 139.38 41.73
  C 134.92 46.62 129.13 43.17 127.44 37.98
  Q 125.97 33.50 127.72 28.72
  C 129.69 23.35 135.80 20.90 140.00 25.40
  Q 140.81 26.26 140.59 25.10
  Z
  M 139.59 29.19
  C 138.78 25.46 133.67 25.40 132.04 28.76
  Q 129.91 33.16 131.90 37.97
  C 133.72 42.35 139.18 41.37 139.85 36.87
  Q 140.41 32.99 139.59 29.19
  Z"
/>
<path fill="currentColor" d="
  M 198.57 27.00
  C 185.73 21.80 185.78 45.30 198.64 40.05
  Q 198.91 39.94 198.97 40.22
  L 199.50 42.73
  A 0.31 0.31 0.0 0 1 199.30 43.08
  C 179.50 49.91 180.43 17.46 199.36 23.83
  A 0.34 0.33 16.7 0 1 199.58 24.23
  L 198.87 26.85
  A 0.23 0.23 0.0 0 1 198.57 27.00
  Z"
/>
<path fill="currentColor" d="
  M 210.4817 44.0973
  A 10.61 9.35 92.8 0 1 201.6612 33.0433
  A 10.61 9.35 92.8 0 1 211.5183 22.9027
  A 10.61 9.35 92.8 0 1 220.3388 33.9567
  A 10.61 9.35 92.8 0 1 210.4817 44.0973
  Z
  M 211.0000 40.8700
  A 7.39 5.08 90.0 0 0 216.0800 33.4800
  A 7.39 5.08 90.0 0 0 211.0000 26.0900
  A 7.39 5.08 90.0 0 0 205.9200 33.4800
  A 7.39 5.08 90.0 0 0 211.0000 40.8700
  Z"
/>
<path fill="currentColor" d="
  M 228.91 26.17
  C 230.72 24.44 231.48 22.85 234.73 22.99
  A 0.28 0.28 0.0 0 1 234.99 23.27
  L 235.00 26.73
  A 0.25 0.25 0.0 0 1 234.73 26.98
  Q 229.28 26.73 229.15 32.51
  Q 229.01 38.23 229.00 43.56
  Q 229.00 44.00 228.55 44.00
  L 225.25 44.00
  Q 224.76 44.00 224.76 43.50
  L 224.73 23.26
  A 0.26 0.26 0.0 0 1 224.99 23.00
  L 227.96 23.01
  Q 228.17 23.01 228.19 23.22
  L 228.43 25.99
  Q 228.48 26.58 228.91 26.17
  Z"
/>
<circle fill="currentColor" cx="46.99" cy="33.00" r="3.96"/>
<circle fill="currentColor" cx="65.99" cy="33.00" r="3.96"/>
</svg>
